<svg width="24" height="24" viewBox="0 0 24 24" fill="none" xmlns="http://www.w3.org/2000/svg">
<rect width="24" height="24" rx="12" fill="#EF4D2F"/>
<path d="M12 7.63799C12.4517 7.63799 12.8179 8.00419 12.8179 8.45591L12.8178 12.2728C12.8178 12.7245 12.4516 13.0907 11.9999 13.0907C11.5482 13.0907 11.182 12.7245 11.182 12.2728L11.1821 8.45588C11.1821 8.00416 11.5483 7.63798 12 7.63799Z" fill="white"/>
<path d="M13.0905 15.2718C13.0905 15.8741 12.6023 16.3623 12 16.3623C11.3977 16.3623 10.9095 15.8741 10.9095 15.2718C10.9095 14.6695 11.3977 14.1813 12 14.1813C12.6023 14.1813 13.0905 14.6695 13.0905 15.2718Z" fill="white"/>
<path fill-rule="evenodd" clip-rule="evenodd" d="M13.3495 4.55897C12.6042 3.81367 11.3958 3.81368 10.6505 4.55897L4.55897 10.6505C3.81367 11.3958 3.81368 12.6042 4.55897 13.3495L10.6505 19.441C11.3958 20.1863 12.6042 20.1863 13.3495 19.441L19.441 13.3495C20.1863 12.6042 20.1863 11.3958 19.441 10.6505L13.3495 4.55897ZM11.8072 5.71567C11.9137 5.6092 12.0863 5.6092 12.1928 5.71567L18.2843 11.8072C18.3908 11.9137 18.3908 12.0863 18.2843 12.1928L12.1928 18.2843C12.0863 18.3908 11.9137 18.3908 11.8072 18.2843L5.71567 12.1928C5.6092 12.0863 5.6092 11.9137 5.71567 11.8072L11.8072 5.71567Z" fill="white"/>
</svg>
