<svg width="24" height="24" viewBox="0 0 24 24" fill="none" xmlns="http://www.w3.org/2000/svg">
<rect width="24" height="24" rx="12" fill="#998A00"/>
<path fill-rule="evenodd" clip-rule="evenodd" d="M7.5 3.875C7.91421 3.875 8.25 4.21079 8.25 4.625V5.15252C8.73694 5.12499 9.31936 5.12499 10.0179 5.125L12.5 5.125V4.625C12.5 4.21079 12.8358 3.875 13.25 3.875C13.6642 3.875 14 4.21079 14 4.625V5.22858C15.2959 5.57624 16.25 6.75902 16.25 8.16464C16.25 9.00037 15.5725 9.67786 14.7368 9.67786H6.00359C6.00012 9.96642 6 10.2951 6 10.675V13.1429C6 14.3756 6.99936 15.375 8.23214 15.375C8.64636 15.375 8.98214 15.7108 8.98214 16.125C8.98214 16.5392 8.64636 16.875 8.23214 16.875C6.17094 16.875 4.5 15.2041 4.5 13.1429V10.6429C4.49999 9.83006 4.49999 9.17444 4.54336 8.64353C4.58803 8.0969 4.68239 7.61675 4.90873 7.17254C5.26825 6.46693 5.84193 5.89325 6.54754 5.53373C6.61418 5.49977 6.68163 5.46878 6.75 5.44049V4.625C6.75 4.21079 7.08579 3.875 7.5 3.875ZM14.7368 8.17786H6.12667C6.15952 8.04807 6.19906 7.94414 6.24524 7.85352C6.46095 7.43016 6.80516 7.08595 7.22852 6.87024C7.42604 6.7696 7.68681 6.70047 8.14068 6.66338C8.60331 6.62558 9.19755 6.625 10.05 6.625H13.2104C14.0607 6.625 14.75 7.31432 14.75 8.16464C14.75 8.16783 14.7495 8.16901 14.7493 8.16956C14.7488 8.1706 14.7479 8.17225 14.7461 8.17399C14.7444 8.17573 14.7427 8.17669 14.7417 8.17713C14.7411 8.17736 14.74 8.17786 14.7368 8.17786Z" fill="white"/>
<path d="M15.75 14.125C15.75 13.7108 15.4142 13.375 15 13.375C14.5858 13.375 14.25 13.7108 14.25 14.125V15.4179C14.25 15.7494 14.3817 16.0674 14.6161 16.3018L15.4697 17.1553C15.7626 17.4482 16.2374 17.4482 16.5303 17.1553C16.8232 16.8624 16.8232 16.3876 16.5303 16.0947L15.75 15.3143V14.125Z" fill="white"/>
<path fill-rule="evenodd" clip-rule="evenodd" d="M15 20.125C17.4853 20.125 19.5 18.1103 19.5 15.625C19.5 13.1397 17.4853 11.125 15 11.125C12.5147 11.125 10.5 13.1397 10.5 15.625C10.5 18.1103 12.5147 20.125 15 20.125ZM15 18.625C16.6569 18.625 18 17.2819 18 15.625C18 13.9681 16.6569 12.625 15 12.625C13.3431 12.625 12 13.9681 12 15.625C12 17.2819 13.3431 18.625 15 18.625Z" fill="white"/>
</svg>
