<svg width="24" height="24" viewBox="0 0 24 24" fill="none" xmlns="http://www.w3.org/2000/svg">
<rect y="0.000976562" width="24" height="24" rx="12" fill="#FFC000"/>
<path d="M13.2105 16.6707C13.7517 17.6081 13.4306 18.8068 12.4931 19.3481C11.5557 19.8893 10.357 19.5681 9.81578 18.6307C9.27456 17.6932 9.59575 16.4945 10.5332 15.9533M13.2105 16.6707C12.6693 15.7333 11.4706 15.4121 10.5332 15.9533M13.2105 16.6707L18.8684 13.4041M10.5332 15.9533L7.59325 10.8612M4 4.63752L5.63329 7.46647M20 12.7508L18.8684 13.4041M7.59325 10.8612L13.2511 7.59462M7.59325 10.8612L5.63329 7.46647M18.8684 13.4041L15.2092 7.06615C15.0652 6.81679 14.7464 6.73135 14.497 6.87532L13.2511 7.59462M13.2511 7.59462L11.5519 4.65139C11.4079 4.40203 11.089 4.31659 10.8397 4.46056L5.63329 7.46647" stroke="white" stroke-width="2" stroke-linecap="round" stroke-linejoin="round"/>
</svg>
