<svg width="24" height="24" viewBox="0 0 24 24" fill="none" xmlns="http://www.w3.org/2000/svg">
<rect width="24" height="24" rx="12" fill="#005BD3"/>
<path fill-rule="evenodd" clip-rule="evenodd" d="M3.93548 5.54831C3.93548 5.01384 4.36876 4.58057 4.90323 4.58057H13.9244C15.5087 4.58057 16.901 5.63081 17.3362 7.15414L17.8871 9.08201C17.9187 9.19286 18.0072 9.27838 18.119 9.30634L20.2896 9.84899C21.2948 10.1003 22 11.0035 22 12.0396V13.6128C22 14.53 21.4532 15.3194 20.6679 15.6729C20.6954 15.8424 20.7097 16.0163 20.7097 16.1935C20.7097 17.975 19.2654 19.4193 17.4839 19.4193C15.7023 19.4193 14.2581 17.975 14.2581 16.1935C14.2581 16.0846 14.2635 15.977 14.274 15.8709H10.3712C10.3817 15.977 10.3871 16.0846 10.3871 16.1935C10.3871 17.975 8.94285 19.4193 7.16129 19.4193C5.37973 19.4193 3.93548 17.975 3.93548 16.1935C3.93548 15.7347 4.03126 15.2983 4.2039 14.9031H3.6129C3.07843 14.9031 2.64516 14.4699 2.64516 13.9354C2.64516 13.4009 3.07843 12.9677 3.6129 12.9677H6.83871C6.87726 12.9677 6.91529 12.9699 6.95266 12.9743C7.02164 12.9699 7.0912 12.9677 7.16129 12.9677C8.06368 12.9677 8.87952 13.3382 9.46498 13.9354H15.1802C15.7656 13.3382 16.5815 12.9677 17.4839 12.9677C18.3848 12.9677 19.1995 13.337 19.7848 13.9326C19.9427 13.9116 20.0645 13.7765 20.0645 13.6128V12.0396C20.0645 11.8916 19.9638 11.7626 19.8202 11.7267L17.6496 11.184C16.8667 10.9883 16.2477 10.3897 16.026 9.61373L15.4752 7.68585C15.2774 6.99343 14.6445 6.51605 13.9244 6.51605H4.90323C4.36876 6.51605 3.93548 6.08278 3.93548 5.54831ZM7.16129 17.4838C7.87392 17.4838 8.45161 16.9061 8.45161 16.1935C8.45161 15.4808 7.87392 14.9031 7.16129 14.9031C6.44866 14.9031 5.87097 15.4808 5.87097 16.1935C5.87097 16.9061 6.44866 17.4838 7.16129 17.4838ZM17.4839 17.4838C18.1965 17.4838 18.7742 16.9061 18.7742 16.1935C18.7742 15.4808 18.1965 14.9031 17.4839 14.9031C16.7712 14.9031 16.1935 15.4808 16.1935 16.1935C16.1935 16.9061 16.7712 17.4838 17.4839 17.4838Z" fill="white"/>
<path d="M2.96774 9.0967C2.43327 9.0967 2 9.52997 2 10.0644C2 10.5989 2.43327 11.0322 2.96774 11.0322H9.41935C9.95382 11.0322 10.3871 10.5989 10.3871 10.0644C10.3871 9.52997 9.95382 9.0967 9.41935 9.0967H2.96774Z" fill="white"/>
</svg>
