<svg width="25" height="24" viewBox="0 0 25 24" fill="none" xmlns="http://www.w3.org/2000/svg">
<rect x="0.5" width="24" height="24" rx="12" fill="#8051FF"/>
<path d="M8.3457 10.4767C8.3457 8.1459 9.99494 6.5 12.3457 6.5C13.3144 6.5 14.164 6.7795 14.8281 7.27125L15.8143 6.2851C15.8427 6.25673 15.8728 6.2311 15.9042 6.20823C14.9633 5.44352 13.7355 5 12.3457 5C9.17362 5 6.8457 7.31038 6.8457 10.4767C6.8457 11.8361 7.27822 13.1088 7.87726 14.2221L8.99321 13.1062C8.59899 12.2735 8.3457 11.3841 8.3457 10.4767Z" fill="white"/>
<path fill-rule="evenodd" clip-rule="evenodd" d="M9.77132 14.4494L8.31537 15.9053C8.02248 16.1982 8.02248 16.6731 8.31537 16.966C8.60826 17.2589 9.08314 17.2589 9.37603 16.966L9.63431 16.7077C10.1744 17.3224 10.6981 17.826 11.1034 18.1887C11.3361 18.397 11.5311 18.56 11.6695 18.6721C11.7387 18.7281 11.7938 18.7715 11.8324 18.8016C11.8518 18.8166 11.867 18.8283 11.8779 18.8365L11.8908 18.8463L11.8948 18.8493L11.8961 18.8503C11.8963 18.8505 11.897 18.851 12.3457 18.25L11.897 18.851C12.1631 19.0497 12.5283 19.0497 12.7944 18.851L12.3457 18.25C12.7944 18.851 12.7942 18.8511 12.7944 18.851L12.7953 18.8503L12.7966 18.8493L12.8006 18.8463L12.8135 18.8365C12.8244 18.8283 12.8396 18.8166 12.859 18.8016C12.8976 18.7715 12.9528 18.7281 13.0219 18.6721C13.1603 18.56 13.3553 18.397 13.5881 18.1887C14.0527 17.7729 14.673 17.1719 15.2952 16.4305C16.5194 14.9717 17.8457 12.8571 17.8457 10.4767C17.8457 9.86452 17.7587 9.28434 17.5954 8.74667L17.9356 8.40643C18.2285 8.11353 18.2285 7.63866 17.9356 7.34577C17.6552 7.06536 17.208 7.05341 16.9134 7.30989C16.9127 7.30886 16.912 7.30783 16.9113 7.30679C16.8997 7.3201 16.8876 7.3331 16.875 7.34576M16.3238 10.0182L10.6974 15.6446C11.2112 16.2372 11.7159 16.7239 12.1037 17.0709C12.1909 17.149 12.272 17.2198 12.3457 17.283C12.4194 17.2198 12.5005 17.149 12.5877 17.0709C13.0137 16.6897 13.5809 16.1398 14.1462 15.4662C15.297 14.095 16.3457 12.323 16.3457 10.4767C16.3457 10.3207 16.3383 10.1678 16.3238 10.0182Z" fill="white"/>
<path d="M16.875 7.34576L9.77132 14.4494L16.875 7.34576Z" fill="white"/>
<path d="M13.1063 8.36781C13.2591 8.41656 13.4056 8.47961 13.544 8.55537L10.1511 11.9483C10.0753 11.8099 10.0123 11.6634 9.96352 11.5106C9.887 11.2708 9.8457 11.0152 9.8457 10.75C9.8457 9.36929 10.965 8.25 12.3457 8.25C12.6109 8.25 12.8665 8.2913 13.1063 8.36781Z" fill="white"/>
</svg>
